<svg width="77" height="98" viewBox="0 0 77 98" fill="none" xmlns="http://www.w3.org/2000/svg">
<path d="M73.9358 55.365C73.9358 68.0459 66.9492 86.8427 50.0851 94.1869C45.8467 96.0327 43.5617 94.0947 38.4999 94.2182C33.9771 94.3285 32.5443 95.8627 28.2776 94.2495C10.5597 87.5506 3.06396 68.9484 3.06396 55.365C3.06396 37.6066 18.0561 28.5697 38.4999 40.6276C57.5808 29.2395 73.9358 37.6066 73.9358 55.365Z" fill="#FF542F"/>
<path fill-rule="evenodd" clip-rule="evenodd" d="M38.495 37.1462C28.3714 31.6132 18.9876 30.7063 11.7906 34.0994C4.1414 37.7056 0 45.6711 0 55.365C0 69.718 7.8807 89.7648 27.1778 97.0607C29.8442 98.0689 31.7961 98.1212 33.7076 97.8645C34.3641 97.7763 34.9007 97.6798 35.4053 97.5891C36.3727 97.4152 37.2229 97.2623 38.576 97.2293C40.1843 97.1901 41.3372 97.3795 42.6477 97.5949C43.1265 97.6736 43.6263 97.7557 44.177 97.8314C46.2579 98.1175 48.5138 98.1656 51.3263 96.9408C69.6813 88.9472 77 68.7631 77 55.365C77 45.5355 72.4076 37.789 64.6396 34.3236C57.3715 31.0812 48.0571 31.913 38.495 37.1462ZM50.0852 94.1869C66.9493 86.8427 73.9359 68.0459 73.9359 55.365C73.9359 37.6066 57.5809 29.2395 38.5 40.6276C18.0562 28.5697 3.06407 37.6066 3.06407 55.365C3.06407 68.9484 10.5598 87.5506 28.2777 94.2495C31.0479 95.2969 32.6235 95.0175 34.6259 94.6625C35.7075 94.4708 36.9137 94.2569 38.5 94.2182C40.4248 94.1712 41.9481 94.4224 43.33 94.6502C45.5821 95.0215 47.4585 95.3308 50.0852 94.1869Z" fill="#3A3A3A"/>
<path fill-rule="evenodd" clip-rule="evenodd" d="M43.4634 85.994C60.3275 78.6498 65.9516 59.8217 65.9516 47.1408C65.9516 43.4273 65.2363 40.1244 63.9306 37.3269C70.0809 40.3354 73.9358 46.7434 73.9358 55.365C73.9358 68.0459 66.9492 86.8427 50.0851 94.1869C47.4584 95.3308 45.582 95.0215 43.3299 94.6502C41.948 94.4224 40.4247 94.1713 38.4999 94.2182C36.9136 94.2569 35.7074 94.4708 34.6257 94.6625C32.6234 95.0175 31.0478 95.2969 28.2776 94.2495C21.7972 91.7994 16.6843 87.7568 12.8054 82.9499C14.6725 84.1289 16.7107 85.1547 18.9308 85.9941C21.7881 87.0743 23.9855 86.7572 26.4838 86.3967C27.7161 86.2189 29.0216 86.0305 30.5156 85.9941C32.3913 85.9483 34.0729 86.1899 35.6622 86.4183C38.3618 86.8062 40.7955 87.1559 43.4634 85.994Z" fill="#ED4A27"/>
<path d="M54.4058 13.581C54.4058 13.581 57.1905 25.9325 53.8599 32.5298C49.8458 40.4813 38.2071 40.6842 38.2071 40.6842C38.2071 40.6842 34.8775 31.1782 39.6965 23.1152C43.4035 16.9128 54.4058 13.581 54.4058 13.581Z" fill="#5AF560"/>
<path fill-rule="evenodd" clip-rule="evenodd" d="M57.4009 12.9526L54.4038 13.5839L53.4801 10.7054C54.3011 10.4568 55.1931 10.5585 55.9386 10.9858C56.6842 11.4131 57.2147 12.1267 57.4009 12.9526ZM51.496 14.644C53.219 13.9427 54.4038 13.5839 54.4038 13.5839C54.4038 13.5839 54.6697 14.7635 54.9389 16.5884C55.5407 20.6678 56.1587 27.9715 53.8581 32.5289C49.845 40.4789 38.2093 40.6817 38.2093 40.6817C38.2093 40.6817 34.8806 31.1776 39.6984 23.1161C42.188 18.9502 47.9693 16.0796 51.496 14.644ZM38.2093 40.6817C35.3069 41.643 35.3065 41.642 35.3061 41.641L35.3035 41.6334L35.2989 41.6201L35.2863 41.5832C35.2765 41.5539 35.2637 41.5154 35.2483 41.468C35.2176 41.3733 35.1766 41.2429 35.1282 41.0795C35.0316 40.7531 34.905 40.2934 34.772 39.7224C34.5069 38.5838 34.2121 36.9835 34.0842 35.1018C33.8308 31.3729 34.2196 26.3114 37.0476 21.5794C39.3639 17.7036 43.7162 14.9985 47.0312 13.3396C48.7566 12.4762 50.3501 11.8242 51.5124 11.3876C52.0954 11.1685 52.5748 11.0018 52.9141 10.8881C53.0838 10.8312 53.2189 10.7875 53.3146 10.7571C53.3625 10.7418 53.4006 10.7299 53.4284 10.7213L53.4622 10.7109L53.4771 10.7063L53.4801 10.7054C53.4808 10.7052 53.4801 10.7054 54.4038 13.5839C57.4009 12.9526 57.4007 12.952 57.4009 12.9526L57.4023 12.9591L57.4048 12.9701L57.4126 13.0055L57.4391 13.1283C57.4613 13.2328 57.4923 13.3818 57.5299 13.5708C57.6049 13.9487 57.7064 14.488 57.8166 15.1529C58.0364 16.4788 58.2937 18.3227 58.4418 20.3925C58.7257 24.3624 58.6657 29.8098 56.6108 33.8805C54.0693 38.9151 49.2187 41.3116 45.4617 42.4622C43.5423 43.05 41.7783 43.3547 40.496 43.5139C39.8515 43.5939 39.3197 43.6383 38.9398 43.6629C38.7496 43.6752 38.5968 43.6825 38.4862 43.6869C38.4309 43.6891 38.386 43.6906 38.3523 43.6915L38.31 43.6926L38.2953 43.693L38.2895 43.6931L38.287 43.6931C38.2859 43.6931 38.2848 43.6931 38.2093 40.6817ZM35.3069 41.643L38.2093 40.6817L38.2848 43.6931C36.9473 43.7165 35.7426 42.8871 35.3069 41.643Z" fill="#3A3A3A"/>
<path d="M51.7948 32.5157C54.7674 27.5437 53.2872 17.2338 53.2872 17.2338C44.5796 25.7007 42.2359 35.3005 41.6777 38.7747C41.6777 38.7747 48.8222 37.4877 51.7948 32.5157Z" fill="#4AC84F"/>
<path d="M22.5122 27.0101C25.4406 27.7694 35.0098 36.1599 37.626 41.3077C37.8443 41.7372 39.0379 41.1002 38.8529 40.7243C37.4073 35.8452 32.7004 24.2988 28.7788 20.7614C23.5079 20.5311 22.3723 25.917 22.5122 27.0101Z" fill="#943D31"/>
<path fill-rule="evenodd" clip-rule="evenodd" d="M21.7306 29.9226C20.5219 29.6092 19.6281 28.6053 19.472 27.3861C19.3679 26.5721 19.5121 25.609 19.7212 24.7992C19.9533 23.9003 20.3577 22.8311 21.0186 21.7924C22.4026 19.617 24.9557 17.5795 28.9148 17.7524C29.6344 17.7839 30.3197 18.0635 30.8504 18.5422C32.1543 19.7183 33.3631 21.3946 34.4283 23.1322C35.5198 24.9125 36.5731 26.9454 37.5268 28.9784C39.3939 32.9587 40.9663 37.1268 41.7528 39.7416C42.3444 41.3418 41.4133 42.6196 41.1286 42.9571C40.7035 43.4611 40.1951 43.7934 39.789 43.9981C39.3908 44.1989 38.7814 44.4334 38.0516 44.4605C37.3517 44.4865 35.7148 44.2867 34.885 42.6539C33.8338 40.5856 31.13 37.5045 28.0934 34.7133C26.6194 33.3585 25.1606 32.1579 23.9282 31.2688C23.3111 30.8236 22.7811 30.4785 22.3567 30.2363C21.9731 30.0174 21.7762 29.9409 21.7356 29.9252C21.727 29.9218 21.7255 29.9212 21.7306 29.9226ZM38.8529 40.7243C38.8513 40.7188 38.8496 40.7132 38.8479 40.7076C38.6557 40.0601 38.4065 39.2963 38.1096 38.45C37.7326 37.3752 37.2788 36.1675 36.7674 34.8965C34.6409 29.6118 31.5182 23.2325 28.7788 20.7615C23.5079 20.5312 22.3722 25.917 22.5121 27.0102C24.6233 27.5576 30.186 32.0713 34.1067 36.4768C34.9364 37.4091 35.6925 38.3365 36.3269 39.2205C36.7989 39.8783 37.2034 40.512 37.5207 41.1058C37.5569 41.1736 37.592 41.241 37.626 41.3078C37.8442 41.7372 39.0379 41.1003 38.8529 40.7243ZM35.8863 41.4834C35.9333 41.6616 36.0012 41.8462 36.0946 42.0359C36.0202 41.8848 35.9588 41.7278 35.9111 41.5666C35.9029 41.5391 35.8947 41.5114 35.8863 41.4834Z" fill="#3A3A3A"/>
<path d="M29.7958 20.8853C30.734 21.9164 30.0125 24.0553 28.1843 25.6628C26.3561 27.2703 24.1135 27.7375 23.1753 26.7065C22.2371 25.6754 22.9586 23.5364 24.7868 21.929C26.615 20.3215 28.8576 19.8543 29.7958 20.8853Z" fill="#C26649"/>
<path d="M17.2726 66.3684C18.2451 66.1855 19.0511 65.8776 19.6904 65.4446C20.3288 65.0066 20.7802 64.4765 21.0448 63.8544C21.3135 63.2262 21.3771 62.5359 21.2356 61.7834L21.2341 61.7757C21.0657 60.88 20.6578 60.2333 20.0107 59.8356C19.3626 59.4329 18.4256 59.2275 17.1999 59.2196L16.014 59.2121C15.394 59.2121 14.931 59.1455 14.6251 59.0123C14.3233 58.873 14.1425 58.6446 14.0828 58.3273L14.0814 58.3196C14.04 58.0995 14.0679 57.8955 14.165 57.7076C14.2663 57.5137 14.4286 57.348 14.6519 57.2106C14.8741 57.0681 15.1516 56.9656 15.4844 56.903C15.8273 56.8385 16.1384 56.8304 16.4178 56.8785C16.6971 56.9267 16.9299 57.0233 17.1162 57.1685C17.3067 57.3075 17.4445 57.4909 17.5297 57.7187L17.561 57.8003L20.1715 57.3093L20.1465 57.2186C19.9669 56.574 19.6534 56.0341 19.2059 55.5989C18.7574 55.1586 18.1837 54.8558 17.4848 54.6904C16.7901 54.519 15.9796 54.5204 15.0531 54.6947C14.2034 54.8545 13.4763 55.1449 12.8719 55.566C12.2665 55.982 11.8249 56.4943 11.5472 57.103C11.2686 57.7066 11.1946 58.3697 11.3252 59.0924L11.3266 59.1C11.4893 59.9651 11.8883 60.6214 12.5237 61.069C13.1642 61.5156 14.0896 61.7443 15.2999 61.7551L16.4858 61.7626C17.1599 61.7683 17.6485 61.8301 17.9516 61.948C18.2546 62.0659 18.4355 62.2809 18.4943 62.5932L18.4957 62.6008C18.539 62.8312 18.5012 63.0529 18.3823 63.2661C18.2686 63.4783 18.0857 63.661 17.8336 63.8144C17.5816 63.9678 17.2713 64.0792 16.9028 64.1485C16.5291 64.2188 16.1893 64.2297 15.8834 64.1812C15.5775 64.1328 15.3238 64.0374 15.1221 63.8952C14.9195 63.7478 14.7842 63.5639 14.7163 63.3435L14.6956 63.2758L12.0007 63.7827L12.0344 63.9195C12.2043 64.5977 12.5254 65.1494 12.9975 65.5746C13.4738 65.9938 14.0753 66.2755 14.802 66.4197C15.5277 66.5588 16.3513 66.5417 17.2726 66.3684ZM22.7533 65.0275L25.2332 64.5611L23.9075 57.5128L25.2972 57.2514L22.0401 54.0085L27.9051 64.0585L29.5175 63.7553L31.3303 52.2612L29.474 56.4658L30.8637 56.2045L32.1894 63.2527L34.6693 62.7863L32.5855 51.7071L29.3685 52.3122L28.1166 60.3223L27.9784 60.3483L23.8788 53.3447L20.6694 53.9484L22.7533 65.0275ZM35.2771 62.672L38.2408 62.1146L39.027 53.0235L39.8409 52.8704L39.3816 50.4289L36.917 50.8924L35.2771 62.672ZM36.9936 59.8371L43.4584 58.6212L42.4384 56.7064L37.2559 57.6812L36.9936 59.8371ZM43.216 61.1788L46.1797 60.6214L40.3644 50.244L38.7137 50.5545L39.1729 52.9961L43.216 61.1788ZM46.7721 60.5099L49.5899 59.9799L48.8621 56.1103L50.1903 55.8605C50.2108 55.8566 50.2313 55.8528 50.2517 55.8489C50.2773 55.8441 50.3004 55.8398 50.3209 55.8359L52.9451 59.3489L56.1084 58.7539L53.0899 54.8779C53.6438 54.4981 54.0312 53.9933 54.2519 53.3636C54.4726 52.7338 54.5194 52.0811 54.3924 51.4054L54.3895 51.3901C54.246 50.6274 53.962 50.0051 53.5375 49.5232C53.112 49.0361 52.5596 48.7055 51.8803 48.5312C51.2061 48.3559 50.4134 48.3539 49.5023 48.5253L44.6883 49.4308L46.7721 60.5099ZM48.4981 54.1755L47.9061 51.0275L49.5722 50.7142C50.0789 50.6189 50.5081 50.6892 50.8599 50.9251C51.2107 51.1559 51.4299 51.5042 51.5175 51.97L51.5204 51.9853C51.6109 52.4665 51.5367 52.8753 51.2979 53.2117C51.0591 53.5481 50.6863 53.7639 50.1796 53.8592L48.4981 54.1755ZM59.3727 58.1399L62.1905 57.6099L60.5327 48.7957L63.7267 48.195L63.3007 45.93L54.0949 47.6615L54.5209 49.9265L57.7149 49.3257L59.3727 58.1399Z" fill="white"/>
<path d="M17.7305 79.2002L20.387 78.7006L20.9315 71.5787L21.0697 71.5528L24.1953 77.9843L26.8364 77.4875L27.6472 65.8639L24.7449 66.4098L24.6744 74.0228L24.5362 74.0488L21.3206 67.0539L19.0633 67.4784L18.6703 75.1521L18.5321 75.178L15.6774 68.1153L12.7521 68.6655L17.7305 79.2002ZM28.7264 77.132L31.6901 76.5746L32.4763 67.4836L33.2902 67.3305L32.831 64.8889L30.3664 65.3525L28.7264 77.132ZM30.4429 74.2971L36.9077 73.0812L35.8877 71.1664L30.7052 72.1412L30.4429 74.2971ZM36.6653 75.6388L39.629 75.0814L33.8137 64.7041L32.163 65.0146L32.6222 67.4561L36.6653 75.6388ZM44.4161 74.4911C45.3887 74.3081 46.1946 74.0002 46.8339 73.5673C47.4723 73.1292 47.9237 72.5991 48.1883 71.977C48.457 71.3488 48.5206 70.6585 48.3791 69.9061L48.3776 69.8984C48.2092 69.0026 47.8014 68.3559 47.1542 67.9583C46.5061 67.5555 45.5692 67.3502 44.3434 67.3422L43.1576 67.3347C42.5375 67.3348 42.0745 67.2682 41.7686 67.1349C41.4668 66.9956 41.286 66.7673 41.2264 66.4499L41.2249 66.4422C41.1835 66.2221 41.2114 66.0182 41.3085 65.8303C41.4099 65.6363 41.5721 65.4707 41.7954 65.3333C42.0177 65.1908 42.2952 65.0883 42.6279 65.0257C42.9708 64.9612 43.282 64.953 43.5613 65.0012C43.8406 65.0493 44.0734 65.146 44.2597 65.2911C44.4502 65.4302 44.588 65.6136 44.6733 65.8413L44.7045 65.9229L47.315 65.4319L47.29 65.3412C47.1104 64.6966 46.7969 64.1567 46.3494 63.7216C45.9009 63.2812 45.3272 62.9784 44.6284 62.8131C43.9337 62.6417 43.1231 62.6431 42.1966 62.8173C41.3469 62.9772 40.6199 63.2676 40.0154 63.6887C39.41 64.1046 38.9684 64.6169 38.6907 65.2256C38.4121 65.8292 38.3381 66.4923 38.4687 67.215L38.4701 67.2227C38.6328 68.0877 39.0319 68.744 39.6672 69.1916C40.3077 69.6382 41.2331 69.8669 42.4434 69.8778L43.6293 69.8852C44.3035 69.8909 44.792 69.9527 45.0951 70.0706C45.3982 70.1885 45.579 70.4036 45.6378 70.7158L45.6392 70.7235C45.6825 70.9538 45.6448 71.1756 45.5259 71.3887C45.4121 71.6009 45.2292 71.7837 44.9771 71.9371C44.7251 72.0905 44.4148 72.2018 44.0463 72.2712C43.6726 72.3414 43.3329 72.3523 43.027 72.3039C42.7211 72.2554 42.4673 72.1601 42.2656 72.0178C42.063 71.8704 41.9278 71.6865 41.8598 71.4661L41.8391 71.3985L39.1442 71.9054L39.1779 72.0421C39.3478 72.7203 39.6689 73.272 40.141 73.6973C40.6174 74.1165 41.2189 74.3982 41.9455 74.5424C42.6712 74.6814 43.4948 74.6643 44.4161 74.4911ZM52.4842 72.6635L55.302 72.1335L53.6442 63.3193L56.8382 62.7186L56.4122 60.4536L47.2064 62.1851L47.6324 64.4501L50.8264 63.8493L52.4842 72.6635ZM59.2497 71.391L66.8431 69.9628L66.4171 67.6979L61.6414 68.5961L61.2154 66.3311L65.707 65.4863L65.3171 63.4133L60.8255 64.2581L60.4096 62.0469L65.1852 61.1486L64.7592 58.8837L57.1658 60.3119L59.2497 71.391Z" fill="white"/>
</svg>
