<svg width="24" height="24" viewBox="0 0 24 24" fill="none" xmlns="http://www.w3.org/2000/svg">
<path d="M3.54938 3.54949C-1.01263 8.11151 -1.01263 15.4866 3.54938 20.0487C8.1114 24.6107 15.4865 24.6107 20.0485 20.0487C24.6106 15.4866 24.6106 8.11151 20.0485 3.54949C15.4865 -1.01252 8.1114 -1.01252 3.54938 3.54949ZM18.3986 18.3987C14.7606 22.0368 8.83736 22.0368 5.1993 18.3987C1.56124 14.7607 1.56124 8.83747 5.1993 5.19941C8.83736 1.56135 14.7606 1.56135 18.3986 5.19941C22.0367 8.83747 22.0367 14.7607 18.3986 18.3987ZM10.6358 4.71268V10.6359H4.71257V12.9623H10.6358V18.8855H12.9622V12.9623H18.8854V10.6359H12.9622V4.71268L10.6358 4.71268Z" fill="#757575"/>
</svg>
