<svg width="22" height="22" viewBox="0 0 22 22" fill="none" xmlns="http://www.w3.org/2000/svg">
<path d="M15.3808 13.6308H14.4592L14.1325 13.3158C15.2758 11.9858 15.9642 10.2592 15.9642 8.38082C15.9642 4.19249 12.5692 0.797485 8.38082 0.797485C4.19249 0.797485 0.797485 4.19249 0.797485 8.38082C0.797485 12.5692 4.19249 15.9642 8.38082 15.9642C10.2592 15.9642 11.9858 15.2758 13.3158 14.1325L13.6308 14.4592V15.3808L19.4642 21.2025L21.2025 19.4642L15.3808 13.6308ZM8.38082 13.6308C5.47582 13.6308 3.13082 11.2858 3.13082 8.38082C3.13082 5.47582 5.47582 3.13082 8.38082 3.13082C11.2858 3.13082 13.6308 5.47582 13.6308 8.38082C13.6308 11.2858 11.2858 13.6308 8.38082 13.6308Z" fill="#757575"/>
</svg>
