<svg width="115" height="115" viewBox="0 0 115 115" fill="none" xmlns="http://www.w3.org/2000/svg">
<rect width="115" height="115" rx="10" fill="#B8E1FF"/>
<g clip-path="url(#clip0_624_1365)">
<path d="M57.916 76.2367C39.3028 76.2367 25.5465 66.7276 24.0399 65.6469C21.7257 63.9768 20.1589 61.4762 19.6525 58.5878C19.1461 55.6982 19.7371 52.7713 21.3398 50.3599C23.3052 47.3822 26.5603 45.5987 30.0322 45.5987C32.1656 45.5987 34.2155 46.2652 35.9874 47.521C36.3606 47.7843 45.608 54.1912 57.7469 54.1912C64.8957 54.1912 71.6343 51.955 77.7714 47.5463C79.5433 46.2773 81.6048 45.5987 83.751 45.5987C87.2228 45.5987 90.478 47.3701 92.4433 50.3477C94.0471 52.7592 94.637 55.6861 94.1306 58.5757C93.6242 61.4652 92.0574 63.9779 89.7422 65.6359C79.9651 72.6696 69.2609 76.2367 57.916 76.2367Z" fill="#F4A360"/>
<path d="M57.9161 78.81C39.2786 78.81 25.2537 69.6215 22.6307 67.7796C19.7752 65.724 17.8511 62.6252 17.2199 59.0582C16.5877 55.4845 17.3257 51.8757 19.3016 48.8969C21.7279 45.2197 25.7389 43.0242 30.0322 43.0242C32.6583 43.0242 35.1925 43.8284 37.3608 45.3497C37.4295 45.4026 46.2508 51.5926 57.7469 51.5926C64.3756 51.5926 70.6406 49.5083 76.3675 45.3971C78.5506 43.8284 81.1038 43 83.7521 43C88.0454 43 92.0564 45.1955 94.4817 48.8716C96.4544 51.8647 97.1945 55.4746 96.5633 59.0339C95.9322 62.6009 94.008 65.6998 91.1462 67.7587C80.9473 75.0921 69.7673 78.81 57.9161 78.81ZM30.0322 48.1721C27.3871 48.1721 24.8963 49.5303 23.3687 51.8052C20.8388 55.6233 21.7649 60.8725 25.4313 63.5098C26.0011 63.9218 39.6243 73.6501 57.9044 73.6501C68.7186 73.6501 78.9545 70.2384 88.3266 63.5098C90.1017 62.2396 91.2963 60.3217 91.6875 58.1119C92.0786 55.8998 91.6188 53.6603 90.3924 51.8074C88.8848 49.5303 86.3983 48.171 83.7383 48.171C82.0923 48.171 80.5096 48.6843 79.1617 49.6559C72.5996 54.3708 65.3905 56.7624 57.7353 56.7624C45.2 56.7624 35.6259 50.3665 34.5751 49.6372C33.2419 48.681 31.6688 48.1721 30.0322 48.1721Z" fill="#4C2F1B"/>
<path d="M58.8686 87.4543C42.485 87.4543 27.4886 80.5957 18.9051 74.1766C16.6152 72.468 15.1076 69.931 14.6488 67.0294C14.191 64.1278 14.8423 61.2261 16.4936 58.8389C18.4706 55.9747 21.6771 54.254 25.0654 54.254C27.2718 54.254 29.3937 54.958 31.1898 56.3019C31.3347 56.4022 34.9271 59.0526 40.5091 61.4773C46.754 64.1905 52.9144 65.5731 58.821 65.5731C67.3801 65.5731 75.1929 62.6075 82.0277 56.7547C83.9085 55.1463 86.2841 54.254 88.7188 54.254C91.8894 54.254 94.8675 55.7236 96.8804 58.2738C98.665 60.5343 99.5087 63.3985 99.2317 66.3255C98.9547 69.2524 97.6046 71.8776 95.4342 73.7492C84.7881 82.8452 72.4907 87.4543 58.8686 87.4543Z" fill="#FF6C4A"/>
<path d="M58.8686 90.0542C41.9163 90.0542 26.3648 82.94 17.4631 76.2829C14.6361 74.1634 12.7691 71.0272 12.2067 67.4502C11.6453 63.8843 12.4551 60.292 14.4849 57.3353C16.9186 53.7947 20.8747 51.6807 25.0655 51.6807C27.7941 51.6807 30.4065 52.551 32.6203 54.1968C32.6499 54.2188 36.0858 56.7613 41.4596 59.1033C47.4085 61.6877 53.2495 62.9986 58.821 62.9986C66.7839 62.9986 74.0606 60.227 80.4493 54.7597C82.7646 52.7658 85.7005 51.6675 88.7188 51.6675C92.6453 51.6675 96.3127 53.484 98.7792 56.6512C100.986 59.4404 102.014 62.9689 101.68 66.5899C101.347 70.1999 99.6799 73.4551 96.9883 75.7564C85.9014 85.2434 73.0764 90.0542 58.8686 90.0542ZM25.0655 56.8395C22.4721 56.8395 20.0194 58.1482 18.5034 60.3393C15.9048 64.1091 16.7326 69.377 20.3461 72.0836C28.6145 78.2702 43.076 84.881 58.8686 84.881C71.9061 84.881 83.677 80.4613 93.8547 71.7432C95.5188 70.3188 96.5527 68.304 96.7631 66.0699C96.9745 63.8326 96.337 61.6437 94.9658 59.9053C93.416 57.9489 91.1388 56.8274 88.7178 56.8274C86.8518 56.8274 85.0313 57.5093 83.5914 58.7486C76.3061 64.9925 67.9722 68.1575 58.82 68.1575C52.5877 68.1575 46.107 66.7122 39.5566 63.8612C33.5791 61.257 29.7975 58.4358 29.7605 58.4071C28.384 57.3815 26.7602 56.8395 25.0655 56.8395Z" fill="#4C2F1B"/>
<path d="M37.8798 73.4352C35.2526 73.4352 34.3001 70.7969 33.6605 69.0508C32.9976 67.2167 32.5758 66.3376 32.0091 66.3376C30.6348 66.3376 29.5258 65.182 29.5258 63.7499C29.5258 62.3178 30.6348 61.1622 32.0091 61.1622C36.0233 61.1622 37.4696 64.9187 38.2541 67.0668C39.3144 65.5224 41.0387 63.2476 43.9926 63.2476C46.9697 63.2476 48.7902 65.5213 50.0081 67.0162C50.2248 67.2927 50.5145 67.6562 50.7555 67.9206C51.1647 67.5438 51.7197 66.8906 52.0813 66.4643C53.3711 64.944 54.8416 63.2233 56.8916 63.2233C59.025 63.2233 60.6415 65.1071 62.0634 66.7782C62.2326 66.9787 62.425 67.2045 62.6301 67.4315C62.666 67.3808 62.6903 67.3433 62.7146 67.2927C63.775 65.6722 65.3915 63.2233 68.1392 63.2233C70.2969 63.2233 71.8045 65.0189 73.1176 66.6152C73.2508 66.7661 73.4072 66.9545 73.5637 67.1428C73.5637 67.1175 73.5764 67.1054 73.5764 67.0922C74.2752 64.8438 75.565 60.6731 79.5433 60.6731C80.9176 60.6731 82.0266 61.8287 82.0266 63.2608C82.0266 64.6929 80.9176 65.8485 79.5433 65.8485C79.0971 66.0996 78.5548 67.8457 78.3021 68.6873C77.6995 70.646 76.8675 73.335 74.2276 73.335C72.1174 73.335 70.6469 71.5768 69.3571 70.018C68.9955 69.5785 68.4288 68.901 68.043 68.5485C67.6571 68.9131 67.1147 69.7415 66.7891 70.2318C65.8366 71.6881 64.7519 73.3339 62.7992 73.3339C60.9787 73.3339 59.7016 71.8269 58.3389 70.2318C57.9414 69.7669 57.3504 69.0751 56.9042 68.662C56.5427 69.0134 56.0965 69.5532 55.7825 69.9178C54.4209 71.525 52.8657 73.3339 50.6709 73.3339C48.5735 73.3339 47.2467 71.6881 46.1746 70.3562C45.4145 69.4144 44.6311 68.435 43.9683 68.435C43.4375 68.435 42.8592 69.226 42.0875 70.3441C41.2311 71.6396 40.0016 73.4352 37.8798 73.4352Z" fill="#F9AF38"/>
<path d="M57.639 99.4134C40.3156 99.4134 26.6565 92.2783 24.1974 90.5201C21.8822 88.849 20.3027 86.7383 19.6398 84.415C18.8807 81.7646 19.3628 78.9378 21.0015 76.4636C22.9668 73.486 26.222 71.7025 29.6939 71.7025C31.8273 71.7025 33.8772 72.3678 35.6502 73.6237C36.0234 73.8869 45.2707 80.2939 57.4106 80.2939C64.5595 80.2939 71.2981 78.0576 77.4352 73.649C79.2071 72.381 81.2686 71.7025 83.4148 71.7025C86.8877 71.7025 90.1418 73.4727 92.1071 76.4504C93.7352 78.9125 94.3262 81.5762 93.8198 84.1385C93.325 86.626 91.8301 88.8358 89.4799 90.5201C78.5791 98.3328 67.7406 99.4134 57.639 99.4134Z" fill="#F4A360"/>
<path d="M57.6274 102C37.1811 102 22.9035 92.7244 22.7618 92.6308C19.9909 90.6413 18.0784 88.0492 17.2527 85.1465C16.2811 81.715 16.8837 78.1072 18.9506 74.9885C21.3769 71.3114 25.3879 69.1158 29.6812 69.1158C32.319 69.1158 34.852 69.9277 37.0056 71.4634C37.0817 71.5207 45.9834 77.7073 57.3959 77.7073C64.0246 77.7073 70.2885 75.6231 76.0165 71.5118C78.1996 69.9443 80.7517 69.1147 83.4 69.1147C87.6933 69.1147 91.7044 71.3103 94.1296 74.9863C96.152 78.04 96.8773 81.3845 96.226 84.6574C95.597 87.819 93.7437 90.5796 90.8671 92.6418C79.4313 100.866 68.1329 102 57.6274 102ZM29.6823 74.2758C27.034 74.2758 24.539 75.6341 23.0081 77.9089C20.622 81.5156 21.6073 85.5276 25.5761 88.3841C25.6956 88.4689 38.8916 96.8279 57.6147 96.8279C67.3136 96.8279 77.7122 95.8045 88.0496 88.3841C89.9061 87.0545 91.0648 85.358 91.3967 83.4786C91.7181 81.6599 91.2498 79.7365 90.0424 77.9122C88.5338 75.6352 86.0473 74.2758 83.3884 74.2758C81.7434 74.2758 80.1607 74.7891 78.8117 75.7608C72.2497 80.4756 65.0395 82.8672 57.3853 82.8672C44.8405 82.8672 35.2749 76.4713 34.2251 75.742C32.892 74.7847 31.3178 74.2758 29.6823 74.2758Z" fill="#4C2F1B"/>
<path d="M37.8439 91.2109C37.4939 91.2109 37.144 91.0599 36.903 90.7592C36.4579 90.2194 36.5171 89.402 37.0478 88.9371C39.749 86.5378 38.8926 83.1206 38.8556 82.9829C38.6748 82.2911 39.0607 81.5883 39.7236 81.3878C40.3865 81.1994 41.062 81.5894 41.2544 82.279C41.3147 82.4927 42.6045 87.4169 38.6622 90.909C38.4105 91.1106 38.1325 91.2109 37.8439 91.2109ZM58.0725 94.4771C57.8557 94.4771 57.639 94.4143 57.4339 94.3009C56.8429 93.9362 56.6505 93.1453 57.0005 92.5306C58.8685 89.2643 56.807 86.8397 56.7954 86.8143C56.3376 86.2867 56.3735 85.4704 56.8799 84.9934C57.3863 84.5153 58.1697 84.5538 58.6275 85.0815C59.7725 86.4001 61.3646 89.9429 59.1339 93.8492C58.9045 94.2502 58.4943 94.4771 58.0725 94.4771Z" fill="#4C2F1B"/>
<path d="M78.8804 90.8847C78.6869 90.8847 78.4945 90.834 78.3138 90.7459C77.6995 90.4198 77.4701 89.641 77.783 88.9999C79.3022 85.9352 76.7459 83.5348 76.6381 83.4345C76.1317 82.9575 76.0714 82.1534 76.5176 81.6125C76.9626 81.0727 77.7471 81.022 78.2651 81.4869C79.7124 82.7934 81.9305 86.2855 79.9894 90.1918C79.7611 90.6325 79.3266 90.8847 78.8804 90.8847Z" fill="#4C2F1B"/>
<path d="M103.956 67.3808C103.643 67.3808 103.329 67.2927 103.052 67.1296L100.328 65.497C99.496 64.9936 99.182 63.9019 99.6165 63.0096L101.004 60.1708C101.316 59.5307 101.932 59.1407 102.619 59.1407C103.415 59.1407 104.114 59.6684 104.343 60.4594L105.682 64.9319C105.851 65.5103 105.755 66.125 105.416 66.6152C105.077 67.0922 104.535 67.3808 103.956 67.3808Z" fill="#FF6C4A"/>
<path d="M102.618 60.422C102.847 60.422 103.076 60.5597 103.16 60.8362L104.499 65.3076C104.619 65.7218 104.318 66.0864 103.956 66.0864C103.86 66.0864 103.764 66.0611 103.668 66.0115L100.943 64.379C100.678 64.2159 100.582 63.8766 100.714 63.6001L102.113 60.748C102.22 60.5343 102.413 60.422 102.618 60.422ZM102.618 57.8343C101.46 57.8343 100.424 58.4997 99.8934 59.5671L98.5074 62.406C97.7727 63.913 98.3024 65.7593 99.7127 66.6009L102.437 68.2335C102.906 68.51 103.426 68.6609 103.956 68.6609C104.922 68.6609 105.85 68.1707 106.415 67.3544C106.982 66.5502 107.15 65.4828 106.862 64.5277L105.523 60.0551C105.126 58.7376 103.956 57.8343 102.618 57.8343Z" fill="#4C2F1B"/>
<path d="M11.0563 63.7885C10.4781 63.7885 9.93571 63.4999 9.5974 63.0096C9.26015 62.5194 9.16395 61.9168 9.33204 61.3264L10.6705 56.8538C10.9115 56.0629 11.5987 55.5352 12.4064 55.5352C13.0936 55.5352 13.7089 55.9241 14.0218 56.5652L15.4089 59.4041C15.8423 60.2953 15.5294 61.3892 14.6974 61.8915L11.9729 63.5241C11.6833 63.7003 11.3703 63.7885 11.0563 63.7885Z" fill="#FF6C4A"/>
<path d="M12.3949 56.8417C12.6 56.8417 12.7924 56.942 12.9013 57.1678L14.2873 60.0066C14.4194 60.2831 14.3232 60.6346 14.0579 60.7855L11.3334 62.4181C11.2372 62.4687 11.141 62.493 11.0448 62.493C10.6833 62.493 10.382 62.1283 10.5025 61.7141L11.8409 57.2416C11.936 56.9794 12.1655 56.8417 12.3949 56.8417ZM12.3949 54.254C11.0565 54.254 9.8745 55.1463 9.47699 56.4892L8.13856 60.9617C7.84995 61.9289 8.01804 62.9843 8.5847 63.7885C9.163 64.6059 10.0796 65.095 11.0438 65.095C11.5745 65.095 12.1041 64.9452 12.563 64.6675L15.2874 63.035C16.6977 62.1922 17.2284 60.347 16.481 58.8389L15.095 56.0001C14.5886 54.9194 13.5525 54.254 12.3949 54.254Z" fill="#4C2F1B"/>
</g>
<path d="M45.8676 17.3157V28.6907H43.7191V17.3157H45.8676ZM52.6957 17.3157L48.1332 22.8625L45.5238 25.6516L45.141 23.5657L46.9535 21.2141L50.0629 17.3157H52.6957ZM50.3051 28.6907L46.766 23.3625L48.3051 21.9719L52.8597 28.6907H50.3051ZM53.1176 24.55V24.386C53.1176 23.7662 53.2061 23.1959 53.3832 22.675C53.5603 22.149 53.8181 21.6933 54.1566 21.3079C54.4952 20.9224 54.9092 20.623 55.3988 20.4094C55.8884 20.1907 56.4457 20.0813 57.0707 20.0813C57.7061 20.0813 58.2686 20.1907 58.7582 20.4094C59.253 20.623 59.6696 20.9224 60.0082 21.3079C60.3467 21.6933 60.6045 22.149 60.7816 22.675C60.9587 23.1959 61.0472 23.7662 61.0472 24.386V24.55C61.0472 25.1646 60.9587 25.7349 60.7816 26.261C60.6045 26.7818 60.3467 27.2375 60.0082 27.6282C59.6696 28.0136 59.2556 28.3131 58.766 28.5266C58.2764 28.7402 57.7165 28.8469 57.0863 28.8469C56.4613 28.8469 55.9014 28.7402 55.4066 28.5266C54.9118 28.3131 54.4952 28.0136 54.1566 27.6282C53.8181 27.2375 53.5603 26.7818 53.3832 26.261C53.2061 25.7349 53.1176 25.1646 53.1176 24.55ZM55.1801 24.386V24.55C55.1801 24.9198 55.2165 25.2662 55.2894 25.5891C55.3624 25.912 55.4743 26.1959 55.6254 26.4407C55.7764 26.6855 55.9717 26.8782 56.2113 27.0188C56.4561 27.1542 56.7478 27.2219 57.0863 27.2219C57.4196 27.2219 57.7061 27.1542 57.9457 27.0188C58.1853 26.8782 58.3806 26.6855 58.5316 26.4407C58.6879 26.1959 58.8025 25.912 58.8754 25.5891C58.9483 25.2662 58.9847 24.9198 58.9847 24.55V24.386C58.9847 24.0214 58.9483 23.6803 58.8754 23.3625C58.8025 23.0396 58.6879 22.7558 58.5316 22.511C58.3806 22.261 58.1827 22.0657 57.9379 21.925C57.6983 21.7792 57.4092 21.7063 57.0707 21.7063C56.7374 21.7063 56.4509 21.7792 56.2113 21.925C55.9717 22.0657 55.7764 22.261 55.6254 22.511C55.4743 22.7558 55.3624 23.0396 55.2894 23.3625C55.2165 23.6803 55.1801 24.0214 55.1801 24.386ZM54.1644 18.0032C54.1644 17.7375 54.2608 17.5162 54.4535 17.3391C54.6462 17.1568 54.891 17.0657 55.1879 17.0657C55.49 17.0657 55.7347 17.1568 55.9222 17.3391C56.115 17.5162 56.2113 17.7375 56.2113 18.0032C56.2113 18.2636 56.115 18.4849 55.9222 18.6672C55.7347 18.8443 55.49 18.9329 55.1879 18.9329C54.891 18.9329 54.6462 18.8443 54.4535 18.6672C54.2608 18.4849 54.1644 18.2636 54.1644 18.0032ZM57.891 18.011C57.891 17.7454 57.9847 17.524 58.1722 17.3469C58.365 17.1646 58.6124 17.0735 58.9144 17.0735C59.2113 17.0735 59.4561 17.1646 59.6488 17.3469C59.8415 17.524 59.9379 17.7454 59.9379 18.011C59.9379 18.2714 59.8415 18.4928 59.6488 18.675C59.4561 18.8521 59.2113 18.9407 58.9144 18.9407C58.6124 18.9407 58.365 18.8521 58.1722 18.675C57.9847 18.4928 57.891 18.2714 57.891 18.011ZM66.5472 20.2375V21.7219H61.7035V20.2375H66.5472ZM63.0004 18.1594H65.0707V26.2532C65.0707 26.5032 65.1045 26.6959 65.1722 26.8313C65.24 26.9667 65.3415 27.0579 65.4769 27.1047C65.6124 27.1516 65.7738 27.175 65.9613 27.175C66.0967 27.175 66.2217 27.1672 66.3363 27.1516C66.4509 27.136 66.5472 27.1204 66.6254 27.1047L66.6332 28.6516C66.4613 28.7089 66.266 28.7558 66.0472 28.7922C65.8337 28.8287 65.5915 28.8469 65.3207 28.8469C64.8571 28.8469 64.4509 28.7688 64.1019 28.6125C63.753 28.4511 63.4821 28.1933 63.2894 27.8391C63.0967 27.4797 63.0004 27.0058 63.0004 26.4172V18.1594ZM71.9222 20.2375V21.7219H67.0785V20.2375H71.9222ZM68.3754 18.1594H70.4457V26.2532C70.4457 26.5032 70.4795 26.6959 70.5472 26.8313C70.615 26.9667 70.7165 27.0579 70.8519 27.1047C70.9874 27.1516 71.1488 27.175 71.3363 27.175C71.4717 27.175 71.5967 27.1672 71.7113 27.1516C71.8259 27.136 71.9222 27.1204 72.0004 27.1047L72.0082 28.6516C71.8363 28.7089 71.641 28.7558 71.4222 28.7922C71.2087 28.8287 70.9665 28.8469 70.6957 28.8469C70.2321 28.8469 69.8259 28.7688 69.4769 28.6125C69.128 28.4511 68.8571 28.1933 68.6644 27.8391C68.4717 27.4797 68.3754 27.0058 68.3754 26.4172V18.1594Z" fill="#373737"/>
<defs>
<clipPath id="clip0_624_1365">
<rect width="99" height="59" fill="white" transform="translate(8 43)"/>
</clipPath>
</defs>
</svg>
