<svg width="115" height="115" viewBox="0 0 115 115" fill="none" xmlns="http://www.w3.org/2000/svg">
<rect width="115" height="115" rx="10" fill="#BEFFB8"/>
<g clip-path="url(#clip0_626_1384)">
<path d="M25.0638 51.1306C25.0638 51.1306 63.4545 72.1463 58.8825 89.3541C58.8825 89.3541 23.9073 78.9581 25.0638 51.1306Z" fill="#359A60"/>
<path d="M60.4397 91.9087L58.1287 91.2367C57.7769 91.1466 21.6462 80.034 22.8017 51.0861L22.9526 47.7256L26.1682 49.4727C27.7766 50.3694 65.9164 71.4306 60.9415 89.8024L60.4397 91.9087ZM27.3248 54.8048C28.9331 74.1635 49.6863 83.7973 57.0232 86.5757C57.2241 75.2394 38.2791 61.3929 27.3248 54.8048Z" fill="#4C2F1B"/>
<path d="M12.551 57.3595C12.551 57.3595 21.998 96.165 62.3489 96.165C62.3999 96.1659 50.39 57.8079 12.551 57.3595Z" fill="#33AC64"/>
<path d="M62.3489 98.1376C20.6916 98.1376 10.4909 58.2117 10.39 57.8079L9.78723 55.3878L12.5511 55.4324C51.5955 55.8807 64.3591 95.2692 64.4601 95.673L65.2637 98.1822L62.3489 98.1376C62.3489 98.1376 62.3999 98.1376 62.3489 98.1376ZM15.4658 59.4658C18.1797 67.6209 28.9831 92.5363 59.2843 94.1042C55.9167 85.9937 43.5049 61.393 15.4658 59.4658Z" fill="#4C2F1B"/>
<path d="M89.5854 53.6407C89.5854 53.6407 52.4501 76.3598 58.0277 93.343C58.0277 93.342 92.3481 81.3782 89.5854 53.6407Z" fill="#359A60"/>
<path d="M56.6203 95.9867L55.9166 93.925C49.9371 75.7768 86.7705 53.0132 88.3278 52.0274L91.4435 50.1002L91.7954 53.4616C94.6591 82.3195 59.2332 95.0454 58.8314 95.18L56.6203 95.9867ZM87.5242 57.404C77.0216 64.4841 58.8813 79.1818 59.7349 90.5191C66.872 87.3378 87.0724 76.7627 87.5242 57.404Z" fill="#4C2F1B"/>
<path d="M102.701 58.2117C102.701 58.2117 58.2287 76.6281 60.7916 95.7175C60.8416 95.7175 100.037 88.3682 102.701 58.2117Z" fill="#33AC64"/>
<path d="M58.9324 98.0921L58.6305 95.9413C55.9166 75.6423 99.937 57.1803 101.795 56.4182L105.213 54.9849L104.911 58.3454C102.147 89.6233 61.6962 97.5546 61.2434 97.6438L58.9324 98.0921ZM99.987 61.6167C90.1881 66.1421 64.0582 79.5411 62.9527 93.1629C71.0922 91.012 95.6658 82.857 99.987 61.6167Z" fill="#4C2F1B"/>
<path d="M56.8223 41.6314C59.1843 41.6314 61.4953 42.6618 62.8017 44.7681L89.0826 87.5625C91.5445 91.5959 88.279 96.5697 83.1032 96.5697H30.4915C25.3157 96.5697 22.049 91.6405 24.512 87.5625L50.8439 44.7681C52.1482 42.6618 54.4592 41.6314 56.8223 41.6314ZM56.8223 36.7021C52.3002 36.7021 48.179 38.8976 46.0179 42.3926L19.687 85.187C17.5769 88.6374 17.6269 92.7154 19.8879 96.0759C22.149 99.4372 26.1193 101.453 30.4904 101.453H83.1021C87.5242 101.453 91.4935 99.4372 93.7046 96.0759C95.9656 92.7154 96.0166 88.6374 93.9055 85.187L67.6257 42.3926C65.4646 38.853 61.2944 36.7021 56.8223 36.7021Z" fill="#4C2F1B"/>
<path d="M47.2234 72.6847C47.0225 72.6847 46.8715 72.6847 46.6706 72.6401C44.7115 72.4164 43.5549 70.8922 43.455 70.713C43.1032 70.2646 43.2541 69.6371 43.7569 69.3688C44.2587 69.0551 44.9624 69.1897 45.2643 69.638C45.4652 69.9072 46.1689 70.5793 46.9736 70.7139C47.5263 70.7585 48.1291 70.5793 48.7328 70.0864C49.1846 69.7281 49.8883 69.7726 50.2902 70.1764C50.692 70.5793 50.642 71.2068 50.1902 71.5652C49.2846 72.3264 48.279 72.6847 47.2234 72.6847Z" fill="#F9E39E"/>
<path d="M62.7008 44.1406L90.6899 87.4725C93.3028 91.505 90.0372 96.5688 84.8104 96.5688H28.7822C23.5564 96.5688 20.2898 91.505 22.9027 87.4725L50.9418 44.1852C53.5557 40.1081 60.0879 40.1081 62.7008 44.1406Z" fill="#FAF7BD"/>
<path d="M36.37 65.6946L19.9879 87.517C17.375 91.5495 20.6416 96.6133 25.8674 96.6133L61.3444 96.5688C49.1336 90.3399 39.3347 70.6684 36.37 65.6946Z" fill="#3AB26C"/>
<path d="M47.3743 78.0623C47.1734 78.0623 47.0225 78.0623 46.8216 78.0177C44.8624 77.7931 43.7059 76.2698 43.6059 76.0906C43.2541 75.6422 43.405 75.0147 43.9078 74.7464C44.4106 74.4327 45.1143 74.5673 45.4152 75.0156C45.6161 75.2848 46.3198 75.9569 47.1235 76.0915C47.6762 76.1816 48.279 75.9569 48.8827 75.464C49.3356 75.1057 50.0382 75.1502 50.4411 75.5541C50.8429 75.9569 50.793 76.5845 50.3401 76.9428C49.4355 77.6585 48.4299 78.0623 47.3743 78.0623ZM46.5707 72.6847C46.3698 72.6847 46.2188 72.6847 46.0179 72.6401C44.0588 72.4164 42.9022 70.8922 42.8023 70.713C42.4504 70.2646 42.6014 69.6371 43.1042 69.3688C43.6059 69.0551 44.3097 69.1897 44.6115 69.638C44.8125 69.9072 45.5162 70.5793 46.3198 70.7139C46.8726 70.7585 47.4753 70.5793 48.0791 70.0864C48.5319 69.7281 49.2346 69.7726 49.6375 70.1764C50.0393 70.5793 49.9893 71.2069 49.5365 71.5652C48.5808 72.3264 47.5752 72.6847 46.5707 72.6847Z" fill="#F9E39E"/>
<path d="M55.5648 92.5808C37.9273 91.5059 28.0775 74.3426 27.6757 73.5814L30.6404 72.2372C30.7414 72.4164 40.0374 88.6383 55.8157 89.5787L55.5648 92.5808Z" fill="#2D9556"/>
<path d="M26.2192 98.1376L23.3555 96.6142C23.6574 96.2104 30.5414 86.1737 49.4354 81.6919L50.289 84.5594C32.6515 88.772 26.2692 98.0475 26.2192 98.1376Z" fill="#2D9556"/>
<path d="M35.8172 66.3222C35.9681 66.3222 36.169 66.4122 36.27 66.5459C39.8885 72.2364 48.9836 90.6092 61.3454 96.5688H26.873C21.3453 96.5688 17.8778 91.505 20.6416 87.4724L35.4153 66.5459C35.5153 66.4113 35.6662 66.3222 35.8172 66.3222ZM35.8172 61.3929C33.7071 61.3929 31.7969 62.3342 30.6924 63.9467L15.9675 84.8732V84.9178C13.6565 88.2782 13.5556 92.3562 15.7167 95.7621C17.9277 99.3026 22.1989 101.498 26.873 101.498L61.3443 101.453H83.2541L63.9572 92.2225C55.013 87.9654 47.3742 74.8356 43.254 67.801C42.4004 66.3677 41.6967 65.1126 41.0429 64.1268C39.9874 62.4234 37.9772 61.3929 35.8172 61.3929Z" fill="#4C2F1B"/>
<path d="M78.2782 68.2484C70.5904 81.3327 53.3537 94.5516 50.238 96.5687H84.8104C90.0372 96.5687 93.3528 91.5049 90.6899 87.4724L78.2782 68.2484Z" fill="#3AB26C"/>
<path d="M56.3196 100.557L55.5149 97.6892C77.3736 92.7154 85.866 76.4044 85.967 76.2243L88.9827 77.4348C88.6309 78.1514 79.7356 95.2246 56.3196 100.557Z" fill="#2D9556"/>
<path d="M78.1782 99.5708L74.9626 98.8988C78.3291 85.9045 72.1488 72.7747 72.0978 72.6401L75.1635 71.4751C75.3634 72.0581 81.7956 85.6344 78.1782 99.5708Z" fill="#2D9556"/>
<path d="M68.4293 72.1918C68.2284 72.1918 68.0774 72.1918 67.8765 72.1472C65.9174 71.9235 64.7609 70.4002 64.6609 70.2201C64.3091 69.7726 64.46 69.1451 64.9628 68.8759C65.4646 68.5621 66.1683 68.6967 66.4702 69.1451C66.6711 69.4143 67.3748 70.0864 68.1795 70.2201C68.7322 70.2646 69.335 70.0855 69.9387 69.5926C70.3905 69.2342 71.0942 69.2788 71.4961 69.6826C71.8979 70.0864 71.8479 70.713 71.3951 71.0723C70.4894 71.8335 69.4849 72.1918 68.4293 72.1918ZM57.7258 84.7386C57.5249 84.7386 57.374 84.7386 57.1731 84.694C55.2129 84.4703 54.0574 82.947 53.9575 82.7678C53.6056 82.3195 53.7565 81.6919 54.2593 81.4237C54.7621 81.1099 55.4658 81.2445 55.7667 81.6929C55.9676 81.9621 56.6713 82.6342 57.475 82.7688C58.0277 82.8133 58.6305 82.6342 59.2342 82.1412C59.6871 81.7829 60.3897 81.8275 60.7916 82.2303C61.1934 82.6342 61.1434 83.2608 60.6916 83.62C59.736 84.3803 58.7314 84.7386 57.7258 84.7386ZM68.5802 77.8377C68.3793 77.8377 68.2284 77.8377 68.0275 77.7931C66.0683 77.5694 64.9118 76.0461 64.8119 75.8669C64.46 75.4185 64.6109 74.791 65.1137 74.5227C65.6165 74.209 66.3203 74.3436 66.6211 74.7919C66.822 75.0611 67.5257 75.7332 68.3294 75.8678C68.8821 75.9124 69.4849 75.7332 70.0886 75.2403C70.5415 74.882 71.2441 74.9265 71.647 75.3294C72.0488 75.7332 71.9989 76.3598 71.546 76.7191C70.6404 77.4348 69.6348 77.8377 68.5802 77.8377Z" fill="#F9E39E"/>
<path d="M78.2781 69.5926C78.68 69.5926 79.0828 69.7717 79.3337 70.0855L91.0417 87.4269C93.7556 91.4595 90.338 96.5233 84.8603 96.5233H50.289C53.4047 94.6416 70.9423 82.5868 77.1726 70.2192C77.3236 69.8172 77.7764 69.5926 78.2781 69.5926ZM78.2781 64.7088C75.6143 64.7088 73.2023 66.0985 72.0967 68.2493C66.6701 78.9145 50.7908 90.2963 47.1223 92.5363L32.4496 101.543H84.8104C89.4334 101.543 93.7046 99.3472 95.9157 95.8521C98.0767 92.4017 98.0257 88.3692 95.7147 84.9632L84.0067 67.6218C82.8012 65.7847 80.6402 64.7088 78.2781 64.7088Z" fill="#4C2F1B"/>
<path d="M53.9076 54.402C53.7067 54.402 53.4547 54.402 53.2549 54.3574C51.2947 54.0436 50.2391 52.5203 50.0892 52.3411C49.7873 51.8937 49.9383 51.2662 50.491 50.997C50.9928 50.7278 51.6965 50.8624 51.9984 51.3107C52.1993 51.5799 52.853 52.2966 53.6567 52.4312C54.2094 52.5212 54.8122 52.3411 55.416 51.8491C55.8678 51.4908 56.5715 51.5799 56.9733 51.9837C57.3751 52.3876 57.2752 53.0142 56.8234 53.3734C55.8667 54.0436 54.9121 54.402 53.9076 54.402ZM57.626 47.3673C57.4251 47.3673 57.1742 47.3673 56.9722 47.3228C55.0131 47.009 53.9575 45.4857 53.8066 45.3065C53.5047 44.8582 53.6556 44.2306 54.1584 43.9624C54.6612 43.6932 55.3649 43.8278 55.6658 44.2761C55.8667 44.5453 56.5205 45.262 57.3241 45.3966C57.8769 45.4866 58.4796 45.3075 59.0834 44.8136C59.5362 44.4553 60.2389 44.5444 60.6417 44.9482C61.0436 45.352 60.9436 45.9786 60.4908 46.3369C59.5851 47.0081 58.6305 47.3673 57.626 47.3673ZM62.9017 54.2228C62.7008 54.2228 62.4499 54.2228 62.249 54.1782C60.2899 53.8645 59.2343 52.3411 59.0834 52.162C58.7815 51.7136 58.9335 51.0861 59.4852 50.8178C59.988 50.5486 60.6917 50.6841 60.9925 51.1316C61.1935 51.4008 61.8462 52.1174 62.6508 52.252C63.2036 52.3411 63.8063 52.162 64.4101 51.6691C64.8629 51.3107 65.5656 51.3999 65.9685 51.8037C66.3703 52.2075 66.2704 52.8341 65.8175 53.1933C64.8619 53.8645 63.9073 54.2228 62.9017 54.2228ZM62.198 60.8545C60.4387 60.8545 59.0823 59.7796 58.9324 59.645C58.4796 59.2866 58.4796 58.6591 58.8825 58.2562C59.2843 57.8524 59.988 57.8524 60.4398 58.2117C60.6917 58.4354 61.5453 58.9283 62.349 58.8838C62.9017 58.8392 63.4045 58.48 63.8563 57.8979C64.2082 57.4495 64.9119 57.3595 65.4136 57.6733C65.9164 57.987 66.0174 58.6146 65.6656 59.0629C64.8109 60.1388 63.7553 60.7663 62.5499 60.8555H62.198V60.8545ZM50.591 60.4516C49.9383 60.4516 49.3855 60.317 48.8317 60.0478C47.0724 59.2412 46.5707 57.4486 46.5207 57.2695C46.3698 56.731 46.7216 56.1936 47.3254 56.059C47.9281 55.9253 48.5308 56.2381 48.6318 56.7765C48.7328 57.0903 49.0847 57.9415 49.8383 58.2553C50.3401 58.479 50.9439 58.4345 51.6975 58.1653C52.2503 57.9861 52.904 58.2098 53.1549 58.7027C53.3558 59.1957 53.105 59.7786 52.5522 60.0024C51.8474 60.3625 51.1937 60.4516 50.591 60.4516ZM66.972 66.4559C65.3137 66.4559 64.0572 65.5601 63.9073 65.4255C63.4545 65.0671 63.3546 64.4396 63.7564 64.0358C64.1582 63.632 64.8119 63.5429 65.3147 63.9021C65.5656 64.0813 66.4702 64.5742 67.2739 64.4396C67.8266 64.3496 68.2784 63.9912 68.7313 63.3637C69.0332 62.9163 69.7358 62.7362 70.2386 63.0499C70.7404 63.3192 70.9423 63.9457 70.5905 64.3941C69.8368 65.5146 68.8312 66.1867 67.6257 66.3658C67.4248 66.4113 67.2239 66.4559 66.972 66.4559ZM57.7769 67.3971C57.576 67.3971 57.4251 67.3971 57.2242 67.3526C55.264 67.1279 54.1085 65.6046 54.0085 65.4255C53.6567 64.9771 53.8076 64.3496 54.3104 64.0813C54.8122 63.7675 55.5159 63.9021 55.8178 64.3505C56.0187 64.6197 56.7224 65.2918 57.526 65.4264C58.0788 65.4709 58.6815 65.2918 59.2853 64.7989C59.7371 64.4405 60.4408 64.4851 60.8426 64.888C61.2445 65.2918 61.1945 65.9184 60.7427 66.2776C59.786 67.0388 58.7815 67.3971 57.7769 67.3971ZM57.3741 72.461C57.1732 72.461 57.0222 72.461 56.8213 72.4164C54.8611 72.1918 53.7056 70.6685 53.6057 70.4893C53.2538 70.0409 53.4048 69.4134 53.9076 69.1451C54.4104 68.8314 55.1141 68.966 55.4149 69.4143C55.6158 69.6835 56.3195 70.3556 57.1232 70.4902C57.676 70.5348 58.2787 70.3556 58.8825 69.8627C59.3353 69.5044 60.038 69.5489 60.4398 69.9518C60.8416 70.3556 60.7916 70.9822 60.3398 71.3415C59.3842 72.1027 58.3797 72.461 57.3741 72.461ZM57.525 78.5998C57.3241 78.5998 57.1732 78.5998 56.9722 78.5552C55.0131 78.3315 53.8566 76.8082 53.7566 76.6281C53.4048 76.1807 53.5557 75.5531 54.0585 75.2839C54.5603 74.9702 55.264 75.1048 55.5659 75.5531C55.7668 75.8223 56.4705 76.4944 57.2741 76.6281C57.8269 76.6727 58.4296 76.4935 59.0334 76.0006C59.4862 75.6423 60.1889 75.6868 60.5918 76.0906C60.9936 76.4944 60.9436 77.121 60.4908 77.4794C59.5352 78.2415 58.5806 78.5998 57.525 78.5998ZM47.7761 66.9488C47.5752 66.9488 47.4243 66.9488 47.2234 66.9042C45.2632 66.6805 44.1077 65.1572 44.0077 64.9771C43.6559 64.5296 43.8068 63.9021 44.3096 63.6329C44.8124 63.3192 45.5161 63.4538 45.817 63.9021C46.0179 64.1713 46.7216 64.8434 47.5253 64.9771C48.078 65.0216 48.6808 64.8425 49.2845 64.3496C49.7374 63.9912 50.44 64.0358 50.8429 64.4396C51.2447 64.8434 51.1947 65.47 50.7419 65.8283C49.8373 66.5459 48.8317 66.9488 47.7761 66.9488Z" fill="#F9E39E"/>
</g>
<path d="M21.4219 23.7841L24.2578 14.6356H26.6406L22.625 26.0106H21.0391L21.4219 23.7841ZM18.8047 14.6356L21.625 23.7841L22.0312 26.0106H20.4297L16.4297 14.6356H18.8047ZM31.1094 26.1669C30.4688 26.1669 29.8932 26.0627 29.3828 25.8544C28.8724 25.646 28.4375 25.357 28.0781 24.9872C27.724 24.6122 27.4505 24.1773 27.2578 23.6825C27.0703 23.1825 26.9766 22.646 26.9766 22.0731V21.7606C26.9766 21.1096 27.0703 20.5184 27.2578 19.9872C27.4453 19.4507 27.7109 18.9898 28.0547 18.6044C28.3984 18.219 28.8099 17.9221 29.2891 17.7137C29.7682 17.5054 30.2969 17.4012 30.875 17.4012C31.474 17.4012 32.0026 17.5028 32.4609 17.7059C32.9193 17.9038 33.3021 18.1851 33.6094 18.5497C33.9167 18.9143 34.1484 19.3518 34.3047 19.8622C34.4609 20.3674 34.5391 20.9273 34.5391 21.5419V22.4091H27.9141V20.9872H32.5078V20.8309C32.4974 20.5028 32.4349 20.2033 32.3203 19.9325C32.2057 19.6565 32.0286 19.4377 31.7891 19.2762C31.5495 19.1096 31.2396 19.0262 30.8594 19.0262C30.5521 19.0262 30.2839 19.094 30.0547 19.2294C29.8307 19.3596 29.6432 19.5471 29.4922 19.7919C29.3464 20.0315 29.237 20.3179 29.1641 20.6512C29.0911 20.9846 29.0547 21.3544 29.0547 21.7606V22.0731C29.0547 22.4273 29.1016 22.7554 29.1953 23.0575C29.2943 23.3596 29.4375 23.6226 29.625 23.8466C29.8177 24.0653 30.0469 24.2372 30.3125 24.3622C30.5833 24.482 30.8906 24.5419 31.2344 24.5419C31.6667 24.5419 32.0573 24.4585 32.4062 24.2919C32.7604 24.12 33.0677 23.8674 33.3281 23.5341L34.3672 24.6122C34.1901 24.8726 33.9505 25.1226 33.6484 25.3622C33.3516 25.6018 32.9922 25.7971 32.5703 25.9481C32.1484 26.094 31.6615 26.1669 31.1094 26.1669ZM41.2969 17.5575H43.1719V25.7528C43.1719 26.5184 43.0052 27.1669 42.6719 27.6981C42.3438 28.2346 41.8828 28.6408 41.2891 28.9169C40.6953 29.1981 40.0052 29.3387 39.2188 29.3387C38.8802 29.3387 38.513 29.2919 38.1172 29.1981C37.7266 29.1044 37.349 28.9559 36.9844 28.7528C36.625 28.5549 36.3255 28.2971 36.0859 27.9794L37.0156 26.7606C37.2969 27.0887 37.6146 27.3361 37.9688 27.5028C38.3229 27.6747 38.7057 27.7606 39.1172 27.7606C39.5339 27.7606 39.888 27.6825 40.1797 27.5262C40.4766 27.3752 40.7031 27.1512 40.8594 26.8544C41.0208 26.5627 41.1016 26.2033 41.1016 25.7762V19.4872L41.2969 17.5575ZM35.5859 21.8856V21.7216C35.5859 21.0757 35.6641 20.4898 35.8203 19.9637C35.9766 19.4325 36.2005 18.9768 36.4922 18.5966C36.7891 18.2163 37.1458 17.9221 37.5625 17.7137C37.9844 17.5054 38.4583 17.4012 38.9844 17.4012C39.5417 17.4012 40.0104 17.5028 40.3906 17.7059C40.776 17.9091 41.0938 18.1981 41.3438 18.5731C41.599 18.9481 41.7969 19.3934 41.9375 19.9091C42.0833 20.4195 42.1953 20.982 42.2734 21.5966V22.0419C42.2005 22.6408 42.0833 23.1903 41.9219 23.6903C41.7656 24.1903 41.5573 24.6278 41.2969 25.0028C41.0365 25.3726 40.7135 25.6591 40.3281 25.8622C39.9427 26.0653 39.4896 26.1669 38.9688 26.1669C38.4479 26.1669 37.9792 26.0601 37.5625 25.8466C37.1458 25.633 36.7891 25.3335 36.4922 24.9481C36.2005 24.5627 35.9766 24.1096 35.8203 23.5887C35.6641 23.0679 35.5859 22.5002 35.5859 21.8856ZM37.6484 21.7216V21.8856C37.6484 22.2502 37.6849 22.5913 37.7578 22.9091C37.8307 23.2268 37.9427 23.508 38.0938 23.7528C38.2448 23.9924 38.4349 24.1799 38.6641 24.3153C38.8932 24.4507 39.1667 24.5184 39.4844 24.5184C39.9115 24.5184 40.2604 24.4299 40.5312 24.2528C40.8073 24.0705 41.0156 23.8231 41.1562 23.5106C41.3021 23.1929 41.3958 22.8361 41.4375 22.4403V21.2137C41.4115 20.9012 41.3542 20.6122 41.2656 20.3466C41.1823 20.0809 41.0651 19.8518 40.9141 19.6591C40.763 19.4663 40.5703 19.3153 40.3359 19.2059C40.1016 19.0966 39.8229 19.0419 39.5 19.0419C39.1875 19.0419 38.9141 19.1122 38.6797 19.2528C38.4453 19.3882 38.2526 19.5783 38.1016 19.8231C37.9505 20.0679 37.8359 20.3518 37.7578 20.6747C37.6849 20.9976 37.6484 21.3466 37.6484 21.7216ZM48.8281 26.1669C48.1875 26.1669 47.612 26.0627 47.1016 25.8544C46.5911 25.646 46.1562 25.357 45.7969 24.9872C45.4427 24.6122 45.1693 24.1773 44.9766 23.6825C44.7891 23.1825 44.6953 22.646 44.6953 22.0731V21.7606C44.6953 21.1096 44.7891 20.5184 44.9766 19.9872C45.1641 19.4507 45.4297 18.9898 45.7734 18.6044C46.1172 18.219 46.5286 17.9221 47.0078 17.7137C47.487 17.5054 48.0156 17.4012 48.5938 17.4012C49.1927 17.4012 49.7214 17.5028 50.1797 17.7059C50.638 17.9038 51.0208 18.1851 51.3281 18.5497C51.6354 18.9143 51.8672 19.3518 52.0234 19.8622C52.1797 20.3674 52.2578 20.9273 52.2578 21.5419V22.4091H45.6328V20.9872H50.2266V20.8309C50.2161 20.5028 50.1536 20.2033 50.0391 19.9325C49.9245 19.6565 49.7474 19.4377 49.5078 19.2762C49.2682 19.1096 48.9583 19.0262 48.5781 19.0262C48.2708 19.0262 48.0026 19.094 47.7734 19.2294C47.5495 19.3596 47.362 19.5471 47.2109 19.7919C47.0651 20.0315 46.9557 20.3179 46.8828 20.6512C46.8099 20.9846 46.7734 21.3544 46.7734 21.7606V22.0731C46.7734 22.4273 46.8203 22.7554 46.9141 23.0575C47.013 23.3596 47.1562 23.6226 47.3438 23.8466C47.5365 24.0653 47.7656 24.2372 48.0312 24.3622C48.3021 24.482 48.6094 24.5419 48.9531 24.5419C49.3854 24.5419 49.776 24.4585 50.125 24.2919C50.4792 24.12 50.7865 23.8674 51.0469 23.5341L52.0859 24.6122C51.9089 24.8726 51.6693 25.1226 51.3672 25.3622C51.0703 25.6018 50.7109 25.7971 50.2891 25.9481C49.8672 26.094 49.3802 26.1669 48.8281 26.1669ZM57.6406 17.5575V19.0419H52.7969V17.5575H57.6406ZM54.0938 15.4794H56.1641V23.5731C56.1641 23.8231 56.1979 24.0158 56.2656 24.1512C56.3333 24.2867 56.4349 24.3778 56.5703 24.4247C56.7057 24.4716 56.8672 24.495 57.0547 24.495C57.1901 24.495 57.3151 24.4872 57.4297 24.4716C57.5443 24.4559 57.6406 24.4403 57.7188 24.4247L57.7266 25.9716C57.5547 26.0288 57.3594 26.0757 57.1406 26.1122C56.9271 26.1486 56.6849 26.1669 56.4141 26.1669C55.9505 26.1669 55.5443 26.0887 55.1953 25.9325C54.8464 25.771 54.5755 25.5132 54.3828 25.1591C54.1901 24.7997 54.0938 24.3257 54.0938 23.7372V15.4794ZM63.6719 24.2137V20.3153C63.6719 20.0288 63.6224 19.7815 63.5234 19.5731C63.4245 19.3648 63.2734 19.2033 63.0703 19.0887C62.8672 18.9742 62.6094 18.9169 62.2969 18.9169C62.0208 18.9169 61.7786 18.9637 61.5703 19.0575C61.3672 19.1512 61.2109 19.2841 61.1016 19.4559C60.9922 19.6226 60.9375 19.8153 60.9375 20.0341H58.8672C58.8672 19.6851 58.9505 19.3544 59.1172 19.0419C59.2839 18.7242 59.5208 18.4429 59.8281 18.1981C60.1406 17.9481 60.513 17.7528 60.9453 17.6122C61.3828 17.4716 61.8724 17.4012 62.4141 17.4012C63.0547 17.4012 63.625 17.5106 64.125 17.7294C64.6302 17.9429 65.026 18.2658 65.3125 18.6981C65.6042 19.1304 65.75 19.6747 65.75 20.3309V24.0184C65.75 24.4403 65.776 24.8023 65.8281 25.1044C65.8854 25.4012 65.9688 25.6591 66.0781 25.8778V26.0106H63.9766C63.8776 25.7971 63.8021 25.5262 63.75 25.1981C63.6979 24.8648 63.6719 24.5367 63.6719 24.2137ZM63.9609 20.8622L63.9766 22.0887H62.6719C62.349 22.0887 62.0651 22.1226 61.8203 22.1903C61.5755 22.2528 61.375 22.3466 61.2188 22.4716C61.0625 22.5913 60.9453 22.7372 60.8672 22.9091C60.7891 23.0757 60.75 23.2658 60.75 23.4794C60.75 23.6877 60.7969 23.8752 60.8906 24.0419C60.9896 24.2085 61.1302 24.3413 61.3125 24.4403C61.5 24.5341 61.7188 24.5809 61.9688 24.5809C62.3333 24.5809 62.651 24.508 62.9219 24.3622C63.1927 24.2111 63.4036 24.0288 63.5547 23.8153C63.7057 23.6018 63.7865 23.3986 63.7969 23.2059L64.3906 24.0966C64.3177 24.3101 64.2083 24.5367 64.0625 24.7762C63.9167 25.0158 63.7292 25.2398 63.5 25.4481C63.2708 25.6565 62.9948 25.8283 62.6719 25.9637C62.349 26.0992 61.974 26.1669 61.5469 26.1669C61 26.1669 60.5104 26.0575 60.0781 25.8387C59.6458 25.62 59.3047 25.3205 59.0547 24.9403C58.8047 24.5601 58.6797 24.1278 58.6797 23.6434C58.6797 23.1955 58.763 22.7997 58.9297 22.4559C59.0964 22.1122 59.3438 21.8231 59.6719 21.5887C60 21.3492 60.4062 21.1695 60.8906 21.0497C61.3802 20.9247 61.9401 20.8622 62.5703 20.8622H63.9609ZM69.6719 19.2841V26.0106H67.6094V17.5575H69.5625L69.6719 19.2841ZM72.2422 17.5028L72.2109 19.4247C72.0964 19.4038 71.9661 19.3882 71.8203 19.3778C71.6797 19.3674 71.5469 19.3622 71.4219 19.3622C71.1042 19.3622 70.8255 19.4065 70.5859 19.495C70.3464 19.5783 70.1458 19.7007 69.9844 19.8622C69.8281 20.0236 69.7083 20.2216 69.625 20.4559C69.5417 20.6851 69.4948 20.9455 69.4844 21.2372L69.0391 21.1825C69.0391 20.646 69.0938 20.1486 69.2031 19.6903C69.3125 19.232 69.4714 18.8309 69.6797 18.4872C69.888 18.1434 70.1484 17.8778 70.4609 17.6903C70.7786 17.4976 71.1432 17.4012 71.5547 17.4012C71.6693 17.4012 71.7917 17.4117 71.9219 17.4325C72.0573 17.4481 72.1641 17.4716 72.2422 17.5028ZM75.5625 17.5575V26.0106H73.4922V17.5575H75.5625ZM73.3516 15.3466C73.3516 15.0393 73.4557 14.7841 73.6641 14.5809C73.8776 14.3778 74.1641 14.2762 74.5234 14.2762C74.8828 14.2762 75.1667 14.3778 75.375 14.5809C75.5885 14.7841 75.6953 15.0393 75.6953 15.3466C75.6953 15.6486 75.5885 15.9012 75.375 16.1044C75.1667 16.3075 74.8828 16.4091 74.5234 16.4091C74.1641 16.4091 73.8776 16.3075 73.6641 16.1044C73.4557 15.9012 73.3516 15.6486 73.3516 15.3466ZM82.1797 23.6981C82.1797 23.521 82.1328 23.3622 82.0391 23.2216C81.9453 23.0809 81.7682 22.9533 81.5078 22.8387C81.2526 22.719 80.8776 22.607 80.3828 22.5028C79.9453 22.4091 79.5417 22.2919 79.1719 22.1512C78.8021 22.0106 78.4844 21.8413 78.2188 21.6434C77.9531 21.4403 77.7448 21.2033 77.5938 20.9325C77.4479 20.6565 77.375 20.3387 77.375 19.9794C77.375 19.6304 77.4505 19.3023 77.6016 18.995C77.7526 18.6825 77.9714 18.4091 78.2578 18.1747C78.5443 17.9351 78.8932 17.7476 79.3047 17.6122C79.7161 17.4716 80.1797 17.4012 80.6953 17.4012C81.4141 17.4012 82.0312 17.5184 82.5469 17.7528C83.0677 17.9872 83.4661 18.3101 83.7422 18.7216C84.0182 19.1278 84.1562 19.5861 84.1562 20.0966H82.0938C82.0938 19.8726 82.0417 19.6695 81.9375 19.4872C81.8385 19.3049 81.6849 19.1591 81.4766 19.0497C81.2682 18.9351 81.0052 18.8778 80.6875 18.8778C80.401 18.8778 80.1589 18.9247 79.9609 19.0184C79.7682 19.1122 79.6224 19.2346 79.5234 19.3856C79.4245 19.5367 79.375 19.7033 79.375 19.8856C79.375 20.021 79.401 20.1434 79.4531 20.2528C79.5104 20.357 79.6016 20.4533 79.7266 20.5419C79.8516 20.6304 80.0208 20.7111 80.2344 20.7841C80.4531 20.857 80.7214 20.9273 81.0391 20.995C81.6693 21.12 82.2188 21.2867 82.6875 21.495C83.1615 21.6981 83.5312 21.969 83.7969 22.3075C84.0625 22.646 84.1953 23.0783 84.1953 23.6044C84.1953 23.9794 84.1146 24.3231 83.9531 24.6356C83.7917 24.9429 83.5573 25.2111 83.25 25.4403C82.9427 25.6695 82.5755 25.8492 82.1484 25.9794C81.7214 26.1044 81.2396 26.1669 80.7031 26.1669C79.9271 26.1669 79.2708 26.0288 78.7344 25.7528C78.1979 25.4716 77.7917 25.1174 77.5156 24.6903C77.2396 24.258 77.1016 23.8101 77.1016 23.3466H79.0781C79.0938 23.6747 79.1823 23.9377 79.3438 24.1356C79.5052 24.3335 79.7083 24.4768 79.9531 24.5653C80.2031 24.6486 80.4661 24.6903 80.7422 24.6903C81.0547 24.6903 81.3177 24.6486 81.5312 24.5653C81.7448 24.4768 81.9062 24.3596 82.0156 24.2137C82.125 24.0627 82.1797 23.8908 82.1797 23.6981ZM87.8281 14.0028V26.0106H85.7656V14.0028H87.8281ZM93.125 17.5575L89.4453 21.6903L87.4531 23.7137L86.7969 22.1122L88.3359 20.1747L90.6328 17.5575H93.125ZM91.0156 26.0106L88.3984 22.0731L89.7734 20.7372L93.4062 26.0106H91.0156ZM98.2188 17.5575V19.0419H93.375V17.5575H98.2188ZM94.6719 15.4794H96.7422V23.5731C96.7422 23.8231 96.776 24.0158 96.8438 24.1512C96.9115 24.2867 97.013 24.3778 97.1484 24.4247C97.2839 24.4716 97.4453 24.495 97.6328 24.495C97.7682 24.495 97.8932 24.4872 98.0078 24.4716C98.1224 24.4559 98.2188 24.4403 98.2969 24.4247L98.3047 25.9716C98.1328 26.0288 97.9375 26.0757 97.7188 26.1122C97.5052 26.1486 97.263 26.1669 96.9922 26.1669C96.5286 26.1669 96.1224 26.0887 95.7734 25.9325C95.4245 25.771 95.1536 25.5132 94.9609 25.1591C94.7682 24.7997 94.6719 24.3257 94.6719 23.7372V15.4794Z" fill="#373737"/>
<defs>
<clipPath id="clip0_626_1384">
<rect width="95.4255" height="64.8404" fill="white" transform="translate(9.78723 36.7021)"/>
</clipPath>
</defs>
</svg>
