<svg width="115" height="115" viewBox="0 0 115 115" fill="none" xmlns="http://www.w3.org/2000/svg">
<rect width="115" height="115" rx="10" fill="#FFF8B8"/>
<g clip-path="url(#clip0_625_1366)">
<path d="M26.1618 98.7967C22.4904 98.7967 20.5731 97.2243 19.6 95.8966C17.5588 93.1201 18.2989 89.7835 18.6965 88.4702C18.902 87.7998 19.135 86.9386 19.3945 85.9264C21.0248 79.6765 24.0666 68.0235 32.875 62.5401C38.8062 58.8472 50.5195 57.5339 59.5069 57.5339C64.9587 57.5339 78.3984 58.0676 85.454 63.045C95.8109 70.3347 98.4263 89.5508 98.5368 90.3712C98.5513 90.5079 98.5645 90.6446 98.5645 90.7946C98.5645 95.8139 95.5647 98.8099 90.5369 98.8099H26.1618V98.7967Z" fill="white"/>
<path d="M26.1486 101.655C21.032 101.655 18.3818 99.1061 17.2561 97.5865C15.269 94.8892 14.7849 91.2515 15.9274 87.6079C16.086 87.1221 16.277 86.3977 16.5004 85.5498L16.5893 85.2116C18.3325 78.5623 21.5786 66.1861 31.3385 60.109C37.803 56.0935 50.1278 54.6639 59.5081 54.6639C66.6226 54.6639 79.6682 55.4459 87.1119 60.6847C98.2677 68.5417 101.103 87.8094 101.39 89.9802C101.429 90.2429 101.441 90.5115 101.441 90.767C101.441 97.3802 97.1613 101.654 90.5382 101.654H26.1486V101.655ZM59.5069 60.4196C48.7006 60.4196 38.8386 62.2174 34.3839 65.0012C26.533 69.8921 23.6846 80.8159 22.154 86.6856C21.8789 87.7446 21.6423 88.6513 21.4236 89.3493C20.8482 91.2131 21.0272 93.035 21.9054 94.2199C22.7487 95.3605 24.1771 95.9386 26.1486 95.9386H90.5357C93.9536 95.9386 95.6872 94.2079 95.6872 90.7958C95.6668 90.6518 93.2665 72.0678 83.7973 65.3945C79.3114 62.2342 70.4585 60.4196 59.5069 60.4196Z" fill="#4C2F1B"/>
<path d="M26.1486 101.299C21.1894 101.299 18.6281 98.8399 17.5432 97.3755C15.6259 94.7717 15.1597 91.2503 16.2674 87.7146C16.426 87.2289 16.6194 86.4973 16.8452 85.6409L16.9341 85.3027C18.6737 78.6679 21.8886 66.4128 31.5271 60.4112C37.9268 56.4365 50.1771 55.0213 59.5069 55.0213C66.5782 55.0213 79.5421 55.7949 86.9052 60.9773C97.9374 68.748 100.75 87.8729 101.034 90.0294C101.072 90.2801 101.081 90.5319 101.081 90.7706C101.081 97.1668 96.9414 101.3 90.5358 101.3H26.1486V101.299ZM59.5069 60.0634C48.637 60.0634 38.7029 61.8828 34.1954 64.6989C26.2243 69.6655 23.3518 80.6792 21.8093 86.5968C21.5354 87.6475 21.3011 88.5494 21.0837 89.2426C20.4746 91.2168 20.674 93.1549 21.6183 94.4322C22.5337 95.6688 24.057 96.296 26.1486 96.296H90.5358C94.1399 96.296 96.044 94.3939 96.044 90.7958C95.9371 89.9334 93.4635 71.7716 84.0027 65.1031C79.4592 61.9008 70.5306 60.0634 59.5069 60.0634Z" fill="#4C2F1B"/>
<path d="M48.9722 96.9785V69.789L67.8084 69.9941V96.9773H48.9722V96.9785Z" fill="#4C2F1B"/>
<path d="M50.9172 71.7452L65.8766 71.8951V95.0355H50.9172V71.7452ZM47.0404 67.834V98.9202H69.7546V68.0799L65.9187 68.0391L50.9593 67.8748L47.0404 67.834Z" fill="#4C2F1B"/>
<path d="M10.4552 72.448C17.4808 50.8871 36.2545 45.5092 58.4485 45.5092C79.4243 45.5092 96.026 50.8883 104.269 72.4623C111.99 92.6679 77.2078 71.3421 58.4485 71.3421C39.688 71.3421 3.76236 92.9762 10.4552 72.448Z" fill="#FF6C4A"/>
<path d="M52.4789 46.3895C52.4789 46.3895 50.4102 58.9852 54.1092 70.6513C54.1092 70.6513 56.602 69.6391 61.9997 70.583C61.9997 70.583 57.6292 56.975 60.7671 46.17C60.7527 46.1568 56.4795 45.815 52.4789 46.3895Z" fill="#FFAF9F"/>
<path d="M81.6913 49.3591C78.2759 64.6462 81.6913 76.0653 81.6913 76.0653L89.2827 78.3428C89.2827 78.3428 87.6897 63.8294 88.5367 53.0556C88.5367 53.04 83.658 49.9888 81.6913 49.3591Z" fill="#FFAF9F"/>
<path d="M83.0969 77.9123C82.5563 75.6179 80.2412 64.3463 83.026 49.8629C84.8305 50.7348 87.6981 52.6118 88.7145 53.2966C88.0489 63.2321 89.0497 75.9753 89.4029 79.9656L83.0969 77.9123Z" fill="#FFAF9F"/>
<path d="M54.4996 71.4717C51.4806 60.4568 52.6447 48.7522 52.9763 46.0417C54.3879 45.8534 55.9617 45.7574 57.6628 45.7574C58.5819 45.7574 59.3688 45.7874 59.9202 45.8162C57.5619 55.9256 60.1304 67.6146 61.1011 71.3925C59.913 71.2162 58.7801 71.1275 57.7241 71.1275C56.2224 71.1287 55.152 71.311 54.4996 71.4717Z" fill="#FFAF9F"/>
<path d="M17.5325 85.7908C12.1624 85.7908 9.37639 83.5049 7.984 81.5883C4.7223 77.0607 6.59763 71.4165 7.21273 69.5611C15.907 43.3983 40.5878 40.3723 58.3969 40.3723C75.9813 40.3723 97.4472 43.6562 107.423 69.2613C108.161 71.1503 110.402 76.8892 107.243 81.4863C105.948 83.3861 103.318 85.6517 98.1536 85.6517C93.1824 85.6517 86.5328 83.5732 79.4916 81.3748C72.2234 79.1104 63.9844 76.5438 58.3981 76.5438C52.8694 76.5438 44.6076 79.0852 37.3189 81.328C29.8837 83.6248 22.8761 85.7908 17.5325 85.7908ZM58.3969 46.1148C32.5711 46.1148 18.4695 53.9011 12.6717 71.3602C11.6205 74.5373 11.6157 76.7825 12.6573 78.2205C13.5403 79.4414 15.1345 80.0339 17.5313 80.0339C21.9535 80.0339 28.5886 77.995 35.613 75.8374C43.6922 73.3559 52.0441 70.7893 58.3957 70.7893C64.8518 70.7893 73.5377 73.4986 81.2 75.8877C87.8363 77.9578 94.1014 79.9116 98.1512 79.9116C100.309 79.9116 101.729 79.3695 102.495 78.2529C103.459 76.8484 103.316 74.5912 102.06 71.3566C93.4022 49.1144 75.1295 46.1148 58.3969 46.1148Z" fill="#4C2F1B"/>
<path d="M17.5324 85.4334C12.3125 85.4334 9.61665 83.2278 8.27352 81.3784C5.11994 77.0007 6.94962 71.4861 7.5515 69.6738C16.1737 43.7293 40.6996 40.7285 58.3969 40.7285C75.8683 40.7285 97.1926 43.9872 107.091 69.3908C107.81 71.2342 110.002 76.84 106.949 81.2848C105.701 83.1163 103.163 85.2967 98.1536 85.2967C93.2377 85.2967 86.6121 83.2266 79.5986 81.0354C72.3039 78.7626 64.0361 76.1888 58.3981 76.1888C52.8117 76.1888 44.5175 78.7422 37.2 80.9934C29.8044 83.277 22.8209 85.4334 17.5324 85.4334ZM58.3969 45.7586C32.3933 45.7586 18.186 53.6204 12.3329 71.2474C11.2433 74.542 11.2553 76.8904 12.369 78.4292C13.3241 79.7497 15.0132 80.3901 17.5324 80.3901C22.0075 80.3901 28.6679 78.344 35.7199 76.178C43.7727 73.7037 52.1005 71.1455 58.3981 71.1455C64.7977 71.1455 73.456 73.8452 81.0955 76.2271C87.757 78.3044 94.0486 80.2666 98.1536 80.2666C100.439 80.2666 101.955 79.6729 102.792 78.4532C103.826 76.9444 103.697 74.5804 102.396 71.227C93.6569 48.7846 75.2508 45.7586 58.3969 45.7586Z" fill="#4C2F1B"/>
<path d="M26.026 53.4262C26.026 53.4262 22.4412 67.1768 32.0485 77.0092L38.1839 75.2125C38.1839 75.2125 30.6177 65.4941 32.1326 49.9324L26.026 53.4262Z" fill="#FFAF9F"/>
<path d="M32.5159 77.3917C24.1796 67.7585 26.3072 54.725 26.7481 52.5002L31.4971 49.5522C30.6598 63.4552 35.5709 72.8929 37.373 75.8493L32.5159 77.3917Z" fill="#FFAF9F"/>
</g>
<path d="M45.9141 14.6356V26.0106H43.7656V14.6356H45.9141ZM50.5 19.5497V21.245H45.3516V19.5497H50.5ZM51.1016 14.6356V16.3309H45.3516V14.6356H51.1016ZM54.5938 17.5575V26.0106H52.5234V17.5575H54.5938ZM52.3828 15.3466C52.3828 15.0393 52.487 14.7841 52.6953 14.5809C52.9089 14.3778 53.1953 14.2762 53.5547 14.2762C53.9141 14.2762 54.1979 14.3778 54.4062 14.5809C54.6198 14.7841 54.7266 15.0393 54.7266 15.3466C54.7266 15.6486 54.6198 15.9012 54.4062 16.1044C54.1979 16.3075 53.9141 16.4091 53.5547 16.4091C53.1953 16.4091 52.9089 16.3075 52.6953 16.1044C52.487 15.9012 52.3828 15.6486 52.3828 15.3466ZM61.2109 23.6981C61.2109 23.521 61.1641 23.3622 61.0703 23.2216C60.9766 23.0809 60.7995 22.9533 60.5391 22.8387C60.2839 22.719 59.9089 22.607 59.4141 22.5028C58.9766 22.4091 58.5729 22.2919 58.2031 22.1512C57.8333 22.0106 57.5156 21.8413 57.25 21.6434C56.9844 21.4403 56.776 21.2033 56.625 20.9325C56.4792 20.6565 56.4062 20.3387 56.4062 19.9794C56.4062 19.6304 56.4818 19.3023 56.6328 18.995C56.7839 18.6825 57.0026 18.4091 57.2891 18.1747C57.5755 17.9351 57.9245 17.7476 58.3359 17.6122C58.7474 17.4716 59.2109 17.4012 59.7266 17.4012C60.4453 17.4012 61.0625 17.5184 61.5781 17.7528C62.099 17.9872 62.4974 18.3101 62.7734 18.7216C63.0495 19.1278 63.1875 19.5861 63.1875 20.0966H61.125C61.125 19.8726 61.0729 19.6695 60.9688 19.4872C60.8698 19.3049 60.7161 19.1591 60.5078 19.0497C60.2995 18.9351 60.0365 18.8778 59.7188 18.8778C59.4323 18.8778 59.1901 18.9247 58.9922 19.0184C58.7995 19.1122 58.6536 19.2346 58.5547 19.3856C58.4557 19.5367 58.4062 19.7033 58.4062 19.8856C58.4062 20.021 58.4323 20.1434 58.4844 20.2528C58.5417 20.357 58.6328 20.4533 58.7578 20.5419C58.8828 20.6304 59.0521 20.7111 59.2656 20.7841C59.4844 20.857 59.7526 20.9273 60.0703 20.995C60.7005 21.12 61.25 21.2867 61.7188 21.495C62.1927 21.6981 62.5625 21.969 62.8281 22.3075C63.0938 22.646 63.2266 23.0783 63.2266 23.6044C63.2266 23.9794 63.1458 24.3231 62.9844 24.6356C62.8229 24.9429 62.5885 25.2111 62.2812 25.4403C61.974 25.6695 61.6068 25.8492 61.1797 25.9794C60.7526 26.1044 60.2708 26.1669 59.7344 26.1669C58.9583 26.1669 58.3021 26.0288 57.7656 25.7528C57.2292 25.4716 56.8229 25.1174 56.5469 24.6903C56.2708 24.258 56.1328 23.8101 56.1328 23.3466H58.1094C58.125 23.6747 58.2135 23.9377 58.375 24.1356C58.5365 24.3335 58.7396 24.4768 58.9844 24.5653C59.2344 24.6486 59.4974 24.6903 59.7734 24.6903C60.0859 24.6903 60.349 24.6486 60.5625 24.5653C60.776 24.4768 60.9375 24.3596 61.0469 24.2137C61.1562 24.0627 61.2109 23.8908 61.2109 23.6981ZM66.8594 14.0028V26.0106H64.7969V14.0028H66.8594ZM72.1562 17.5575L68.4766 21.6903L66.4844 23.7137L65.8281 22.1122L67.3672 20.1747L69.6641 17.5575H72.1562ZM70.0469 26.0106L67.4297 22.0731L68.8047 20.7372L72.4375 26.0106H70.0469Z" fill="#373737"/>
<defs>
<clipPath id="clip0_625_1366">
<rect width="102.766" height="61.2825" fill="white" transform="translate(6.11707 40.3723)"/>
</clipPath>
</defs>
</svg>
